<svg width="51" height="13" viewBox="0 0 51 13" fill="none" xmlns="http://www.w3.org/2000/svg">
<path d="M6.92045 3.85227C6.88258 3.43561 6.71402 3.11174 6.41477 2.88068C6.11932 2.64583 5.69697 2.52841 5.14773 2.52841C4.78409 2.52841 4.48106 2.57576 4.23864 2.67045C3.99621 2.76515 3.81439 2.89583 3.69318 3.0625C3.57197 3.22538 3.50947 3.41288 3.50568 3.625C3.49811 3.79924 3.5322 3.95265 3.60795 4.08523C3.6875 4.2178 3.80114 4.33523 3.94886 4.4375C4.10038 4.53598 4.2822 4.62311 4.49432 4.69886C4.70644 4.77462 4.94508 4.84091 5.21023 4.89773L6.21023 5.125C6.78599 5.25 7.29356 5.41667 7.73295 5.625C8.17614 5.83333 8.54735 6.08144 8.84659 6.36932C9.14962 6.6572 9.37879 6.98864 9.53409 7.36364C9.68939 7.73864 9.76894 8.15909 9.77273 8.625C9.76894 9.35985 9.58333 9.99053 9.21591 10.517C8.84848 11.0436 8.32008 11.447 7.63068 11.7273C6.94508 12.0076 6.11742 12.1477 5.14773 12.1477C4.17424 12.1477 3.32576 12.0019 2.60227 11.7102C1.87879 11.4186 1.31629 10.9754 0.914773 10.3807C0.513258 9.78598 0.306818 9.03409 0.295455 8.125H2.98864C3.01136 8.5 3.11174 8.8125 3.28977 9.0625C3.4678 9.3125 3.71212 9.50189 4.02273 9.63068C4.33712 9.75947 4.70076 9.82386 5.11364 9.82386C5.49242 9.82386 5.81439 9.77273 6.07955 9.67045C6.34849 9.56818 6.55492 9.42614 6.69886 9.24432C6.8428 9.0625 6.91667 8.85417 6.92045 8.61932C6.91667 8.39962 6.84849 8.21212 6.71591 8.05682C6.58333 7.89773 6.37879 7.76136 6.10227 7.64773C5.82955 7.5303 5.48106 7.42235 5.05682 7.32386L3.84091 7.03977C2.83333 6.80871 2.03977 6.43561 1.46023 5.92045C0.880682 5.40151 0.592803 4.70076 0.596591 3.81818C0.592803 3.09848 0.785985 2.4678 1.17614 1.92614C1.56629 1.38447 2.10606 0.962121 2.79545 0.659091C3.48485 0.35606 4.27083 0.204545 5.15341 0.204545C6.05492 0.204545 6.83712 0.357954 7.5 0.664772C8.16667 0.967803 8.68371 1.39394 9.05114 1.94318C9.41856 2.49242 9.60606 3.12879 9.61364 3.85227H6.92045ZM15.3193 3.27273V5.31818H9.81364V3.27273H15.3193ZM10.967 1.18182H13.7455V9.25568C13.7455 9.42614 13.772 9.56439 13.825 9.67045C13.8818 9.77273 13.9633 9.84659 14.0693 9.89205C14.1754 9.93371 14.3023 9.95455 14.45 9.95455C14.5561 9.95455 14.6678 9.94508 14.7852 9.92614C14.9064 9.90341 14.9973 9.88447 15.058 9.86932L15.4784 11.875C15.3458 11.9129 15.1583 11.9602 14.9159 12.017C14.6773 12.0739 14.3913 12.1098 14.058 12.125C13.4064 12.1553 12.8477 12.0795 12.3818 11.8977C11.9197 11.7121 11.5655 11.4242 11.3193 11.0341C11.0769 10.6439 10.9595 10.1534 10.967 9.5625V1.18182ZM19.917 12.1648C19.0004 12.1648 18.2125 11.9773 17.5534 11.6023C16.8981 11.2235 16.3924 10.697 16.0364 10.0227C15.6841 9.3447 15.508 8.55871 15.508 7.66477C15.508 6.76705 15.6841 5.98106 16.0364 5.30682C16.3924 4.62879 16.8981 4.10227 17.5534 3.72727C18.2125 3.34848 19.0004 3.15909 19.917 3.15909C20.8337 3.15909 21.6197 3.34848 22.275 3.72727C22.9341 4.10227 23.4398 4.62879 23.792 5.30682C24.1481 5.98106 24.3261 6.76705 24.3261 7.66477C24.3261 8.55871 24.1481 9.3447 23.792 10.0227C23.4398 10.697 22.9341 11.2235 22.275 11.6023C21.6197 11.9773 20.8337 12.1648 19.917 12.1648ZM19.9341 10.0682C20.2674 10.0682 20.5496 9.96591 20.7807 9.76136C21.0117 9.55682 21.1879 9.27273 21.3091 8.90909C21.4341 8.54545 21.4966 8.125 21.4966 7.64773C21.4966 7.16288 21.4341 6.73864 21.3091 6.375C21.1879 6.01136 21.0117 5.72727 20.7807 5.52273C20.5496 5.31818 20.2674 5.21591 19.9341 5.21591C19.5894 5.21591 19.2977 5.31818 19.0591 5.52273C18.8242 5.72727 18.6443 6.01136 18.5193 6.375C18.3981 6.73864 18.3375 7.16288 18.3375 7.64773C18.3375 8.125 18.3981 8.54545 18.5193 8.90909C18.6443 9.27273 18.8242 9.55682 19.0591 9.76136C19.2977 9.96591 19.5894 10.0682 19.9341 10.0682ZM27.0006 3.27273L28.4381 6.14773L29.9267 3.27273H32.7278L30.2903 7.63636L32.8188 12H30.0403L28.4381 9.10227L26.8756 12H24.0574L26.5915 7.63636L24.1824 3.27273H27.0006ZM36.9577 12.1648C36.041 12.1648 35.2531 11.9773 34.594 11.6023C33.9387 11.2235 33.433 10.697 33.077 10.0227C32.7247 9.3447 32.5486 8.55871 32.5486 7.66477C32.5486 6.76705 32.7247 5.98106 33.077 5.30682C33.433 4.62879 33.9387 4.10227 34.594 3.72727C35.2531 3.34848 36.041 3.15909 36.9577 3.15909C37.8743 3.15909 38.6603 3.34848 39.3156 3.72727C39.9747 4.10227 40.4804 4.62879 40.8327 5.30682C41.1887 5.98106 41.3668 6.76705 41.3668 7.66477C41.3668 8.55871 41.1887 9.3447 40.8327 10.0227C40.4804 10.697 39.9747 11.2235 39.3156 11.6023C38.6603 11.9773 37.8743 12.1648 36.9577 12.1648ZM36.9747 10.0682C37.308 10.0682 37.5902 9.96591 37.8213 9.76136C38.0524 9.55682 38.2285 9.27273 38.3497 8.90909C38.4747 8.54545 38.5372 8.125 38.5372 7.64773C38.5372 7.16288 38.4747 6.73864 38.3497 6.375C38.2285 6.01136 38.0524 5.72727 37.8213 5.52273C37.5902 5.31818 37.308 5.21591 36.9747 5.21591C36.63 5.21591 36.3384 5.31818 36.0997 5.52273C35.8649 5.72727 35.6849 6.01136 35.5599 6.375C35.4387 6.73864 35.3781 7.16288 35.3781 7.64773C35.3781 8.125 35.4387 8.54545 35.5599 8.90909C35.6849 9.27273 35.8649 9.55682 36.0997 9.76136C36.3384 9.96591 36.63 10.0682 36.9747 10.0682ZM44.7685 7.02273V12H41.9901V3.27273H44.6321V4.875H44.7287C44.9219 4.34091 45.2514 3.92235 45.7173 3.61932C46.1832 3.3125 46.7382 3.15909 47.3821 3.15909C47.9957 3.15909 48.5279 3.29735 48.9787 3.57386C49.4332 3.84659 49.7855 4.22917 50.0355 4.72159C50.2893 5.21023 50.4143 5.7822 50.4105 6.4375V12H47.6321V6.98295C47.6359 6.49811 47.5128 6.11932 47.2628 5.84659C47.0166 5.57386 46.6738 5.4375 46.2344 5.4375C45.9427 5.4375 45.6851 5.50189 45.4616 5.63068C45.242 5.75568 45.0715 5.93561 44.9503 6.17045C44.8329 6.4053 44.7723 6.68939 44.7685 7.02273Z" fill="#393939"/>
</svg>
