<svg width="48" height="48" viewBox="0 0 48 48" fill="none" xmlns="http://www.w3.org/2000/svg">
<rect x="0.5" y="0.5" width="47" height="47" rx="9.5" fill="#393939" stroke="#494949"/>
<path d="M24 36.5V25.25" stroke="#F5F5F5" stroke-width="2" stroke-linecap="round" stroke-linejoin="round"/>
<path d="M27.9625 11.7625C28.2738 11.5884 28.6246 11.497 28.9813 11.497C29.3379 11.497 29.6887 11.5884 30 11.7625L35.25 14.7125C35.6218 14.9228 35.9311 15.228 36.1464 15.5969C36.3616 15.9659 36.475 16.3854 36.475 16.8125C36.475 17.2397 36.3616 17.6591 36.1464 18.0281C35.9311 18.3971 35.6218 18.7023 35.25 18.9125L20.025 27.4875C19.7128 27.6656 19.3595 27.7593 19 27.7593C18.6405 27.7593 18.2873 27.6656 17.975 27.4875L12.75 24.5375C12.3782 24.3273 12.0689 24.0221 11.8536 23.6531C11.6384 23.2841 11.525 22.8647 11.525 22.4375C11.525 22.0104 11.6384 21.5909 11.8536 21.2219C12.0689 20.853 12.3782 20.5478 12.75 20.3375L27.9625 11.7625Z" stroke="#F5F5F5" stroke-width="2" stroke-linecap="round" stroke-linejoin="round"/>
<path d="M34 25.25V30.0875C34.0005 30.5593 33.8713 31.0222 33.6267 31.4256C33.382 31.829 33.0311 32.1574 32.6125 32.375L25.1125 36.225C24.7689 36.4036 24.3873 36.4968 24 36.4968C23.6127 36.4968 23.2311 36.4036 22.8875 36.225L15.3875 32.375C14.9689 32.1574 14.618 31.829 14.3734 31.4256C14.1287 31.0222 13.9995 30.5593 14 30.0875V25.25" stroke="#F5F5F5" stroke-width="2" stroke-linecap="round" stroke-linejoin="round"/>
<path d="M35.25 24.5375C35.6218 24.3272 35.9311 24.022 36.1464 23.6531C36.3616 23.2841 36.475 22.8646 36.475 22.4375C36.475 22.0104 36.3616 21.5909 36.1464 21.2219C35.9311 20.8529 35.6218 20.5477 35.25 20.3375L20.0375 11.75C19.7274 11.5724 19.3762 11.4789 19.0188 11.4789C18.6613 11.4789 18.3102 11.5724 18 11.75L12.75 14.7125C12.3782 14.9227 12.0689 15.2279 11.8536 15.5969C11.6384 15.9659 11.525 16.3854 11.525 16.8125C11.525 17.2396 11.6384 17.6591 11.8536 18.0281C12.0689 18.397 12.3782 18.7022 12.75 18.9125L27.975 27.4875C28.285 27.6656 28.6362 27.7593 28.9938 27.7593C29.3513 27.7593 29.7025 27.6656 30.0125 27.4875L35.25 24.5375Z" stroke="#F5F5F5" stroke-width="2" stroke-linecap="round" stroke-linejoin="round"/>
<path d="M22.3658 15.2727L23.9595 18.0298H24.0277L25.6385 15.2727H27.9993L25.3658 19.6364L28.0845 24H25.6641L24.0277 21.2131H23.9595L22.3232 24H19.9197L22.6257 19.6364L19.9879 15.2727H22.3658Z" fill="#F5F5F5"/>
</svg>
