<svg width="83" height="30" viewBox="0 0 83 30" fill="none" xmlns="http://www.w3.org/2000/svg">
<path d="M15 27.5V16.25" stroke="#393939" stroke-width="2" stroke-linecap="round" stroke-linejoin="round"/>
<path d="M18.9625 2.76251C19.2738 2.58844 19.6246 2.49704 19.9812 2.49704C20.3379 2.49704 20.6887 2.58844 21 2.76251L26.25 5.71251C26.6218 5.92276 26.9311 6.22796 27.1464 6.59692C27.3616 6.96588 27.475 7.38536 27.475 7.81251C27.475 8.23965 27.3616 8.65914 27.1464 9.0281C26.9311 9.39705 26.6218 9.70225 26.25 9.91251L11.025 18.4875C10.7127 18.6656 10.3595 18.7593 9.99999 18.7593C9.64052 18.7593 9.28724 18.6656 8.97499 18.4875L3.74999 15.5375C3.37818 15.3273 3.06885 15.0221 2.85363 14.6531C2.6384 14.2841 2.52499 13.8647 2.52499 13.4375C2.52499 13.0104 2.6384 12.5909 2.85363 12.2219C3.06885 11.853 3.37818 11.5478 3.74999 11.3375L18.9625 2.76251Z" stroke="#393939" stroke-width="2" stroke-linecap="round" stroke-linejoin="round"/>
<path d="M25 16.25V21.0875C25.0005 21.5593 24.8713 22.0222 24.6267 22.4256C24.382 22.829 24.0311 23.1574 23.6125 23.375L16.1125 27.225C15.7689 27.4036 15.3873 27.4968 15 27.4968C14.6127 27.4968 14.2311 27.4036 13.8875 27.225L6.3875 23.375C5.96886 23.1574 5.61804 22.829 5.37335 22.4256C5.12866 22.0222 4.99951 21.5593 5 21.0875V16.25" stroke="#393939" stroke-width="2" stroke-linecap="round" stroke-linejoin="round"/>
<path d="M26.25 15.5375C26.6218 15.3272 26.9311 15.022 27.1464 14.6531C27.3616 14.2841 27.475 13.8646 27.475 13.4375C27.475 13.0104 27.3616 12.5909 27.1464 12.2219C26.9311 11.8529 26.6218 11.5477 26.25 11.3375L11.0375 2.75C10.7273 2.57238 10.3761 2.47894 10.0187 2.47894C9.66134 2.47894 9.31014 2.57238 8.99999 2.75L3.74999 5.7125C3.37818 5.92275 3.06885 6.22795 2.85363 6.59691C2.6384 6.96587 2.52499 7.38535 2.52499 7.8125C2.52499 8.23964 2.6384 8.65913 2.85363 9.02809C3.06885 9.39704 3.37818 9.70224 3.74999 9.9125L18.975 18.4875C19.285 18.6656 19.6362 18.7593 19.9937 18.7593C20.3512 18.7593 20.7025 18.6656 21.0125 18.4875L26.25 15.5375Z" stroke="#393939" stroke-width="2" stroke-linecap="round" stroke-linejoin="round"/>
<path d="M13.3658 6.27273L14.9595 9.02983H15.0277L16.6385 6.27273H18.9993L16.3658 10.6364L19.0845 15H16.6641L15.0277 12.2131H14.9595L13.3232 15H10.9197L13.6257 10.6364L10.9879 6.27273H13.3658Z" fill="#393939"/>
<path d="M37.9205 12.8523C37.8826 12.4356 37.714 12.1117 37.4148 11.8807C37.1193 11.6458 36.697 11.5284 36.1477 11.5284C35.7841 11.5284 35.4811 11.5758 35.2386 11.6705C34.9962 11.7652 34.8144 11.8958 34.6932 12.0625C34.572 12.2254 34.5095 12.4129 34.5057 12.625C34.4981 12.7992 34.5322 12.9527 34.608 13.0852C34.6875 13.2178 34.8011 13.3352 34.9489 13.4375C35.1004 13.536 35.2822 13.6231 35.4943 13.6989C35.7064 13.7746 35.9451 13.8409 36.2102 13.8977L37.2102 14.125C37.786 14.25 38.2936 14.4167 38.733 14.625C39.1761 14.8333 39.5473 15.0814 39.8466 15.3693C40.1496 15.6572 40.3788 15.9886 40.5341 16.3636C40.6894 16.7386 40.7689 17.1591 40.7727 17.625C40.7689 18.3598 40.5833 18.9905 40.2159 19.517C39.8485 20.0436 39.3201 20.447 38.6307 20.7273C37.9451 21.0076 37.1174 21.1477 36.1477 21.1477C35.1742 21.1477 34.3258 21.0019 33.6023 20.7102C32.8788 20.4186 32.3163 19.9754 31.9148 19.3807C31.5133 18.786 31.3068 18.0341 31.2955 17.125H33.9886C34.0114 17.5 34.1117 17.8125 34.2898 18.0625C34.4678 18.3125 34.7121 18.5019 35.0227 18.6307C35.3371 18.7595 35.7008 18.8239 36.1136 18.8239C36.4924 18.8239 36.8144 18.7727 37.0795 18.6705C37.3485 18.5682 37.5549 18.4261 37.6989 18.2443C37.8428 18.0625 37.9167 17.8542 37.9205 17.6193C37.9167 17.3996 37.8485 17.2121 37.7159 17.0568C37.5833 16.8977 37.3788 16.7614 37.1023 16.6477C36.8295 16.5303 36.4811 16.4223 36.0568 16.3239L34.8409 16.0398C33.8333 15.8087 33.0398 15.4356 32.4602 14.9205C31.8807 14.4015 31.5928 13.7008 31.5966 12.8182C31.5928 12.0985 31.786 11.4678 32.1761 10.9261C32.5663 10.3845 33.1061 9.96212 33.7955 9.65909C34.4848 9.35606 35.2708 9.20455 36.1534 9.20455C37.0549 9.20455 37.8371 9.35795 38.5 9.66477C39.1667 9.9678 39.6837 10.3939 40.0511 10.9432C40.4186 11.4924 40.6061 12.1288 40.6136 12.8523H37.9205ZM46.3193 12.2727V14.3182H40.8136V12.2727H46.3193ZM41.967 10.1818H44.7455V18.2557C44.7455 18.4261 44.772 18.5644 44.825 18.6705C44.8818 18.7727 44.9633 18.8466 45.0693 18.892C45.1754 18.9337 45.3023 18.9545 45.45 18.9545C45.5561 18.9545 45.6678 18.9451 45.7852 18.9261C45.9064 18.9034 45.9973 18.8845 46.058 18.8693L46.4784 20.875C46.3458 20.9129 46.1583 20.9602 45.9159 21.017C45.6773 21.0739 45.3913 21.1098 45.058 21.125C44.4064 21.1553 43.8477 21.0795 43.3818 20.8977C42.9197 20.7121 42.5655 20.4242 42.3193 20.0341C42.0769 19.6439 41.9595 19.1534 41.967 18.5625V10.1818ZM50.917 21.1648C50.0004 21.1648 49.2125 20.9773 48.5534 20.6023C47.8981 20.2235 47.3924 19.697 47.0364 19.0227C46.6841 18.3447 46.508 17.5587 46.508 16.6648C46.508 15.767 46.6841 14.9811 47.0364 14.3068C47.3924 13.6288 47.8981 13.1023 48.5534 12.7273C49.2125 12.3485 50.0004 12.1591 50.917 12.1591C51.8337 12.1591 52.6197 12.3485 53.275 12.7273C53.9341 13.1023 54.4398 13.6288 54.792 14.3068C55.1481 14.9811 55.3261 15.767 55.3261 16.6648C55.3261 17.5587 55.1481 18.3447 54.792 19.0227C54.4398 19.697 53.9341 20.2235 53.275 20.6023C52.6197 20.9773 51.8337 21.1648 50.917 21.1648ZM50.9341 19.0682C51.2674 19.0682 51.5496 18.9659 51.7807 18.7614C52.0117 18.5568 52.1879 18.2727 52.3091 17.9091C52.4341 17.5455 52.4966 17.125 52.4966 16.6477C52.4966 16.1629 52.4341 15.7386 52.3091 15.375C52.1879 15.0114 52.0117 14.7273 51.7807 14.5227C51.5496 14.3182 51.2674 14.2159 50.9341 14.2159C50.5894 14.2159 50.2977 14.3182 50.0591 14.5227C49.8242 14.7273 49.6443 15.0114 49.5193 15.375C49.3981 15.7386 49.3375 16.1629 49.3375 16.6477C49.3375 17.125 49.3981 17.5455 49.5193 17.9091C49.6443 18.2727 49.8242 18.5568 50.0591 18.7614C50.2977 18.9659 50.5894 19.0682 50.9341 19.0682ZM58.0006 12.2727L59.4381 15.1477L60.9267 12.2727H63.7278L61.2903 16.6364L63.8188 21H61.0403L59.4381 18.1023L57.8756 21H55.0574L57.5915 16.6364L55.1824 12.2727H58.0006ZM67.9577 21.1648C67.041 21.1648 66.2531 20.9773 65.594 20.6023C64.9387 20.2235 64.433 19.697 64.077 19.0227C63.7247 18.3447 63.5486 17.5587 63.5486 16.6648C63.5486 15.767 63.7247 14.9811 64.077 14.3068C64.433 13.6288 64.9387 13.1023 65.594 12.7273C66.2531 12.3485 67.041 12.1591 67.9577 12.1591C68.8743 12.1591 69.6603 12.3485 70.3156 12.7273C70.9747 13.1023 71.4804 13.6288 71.8327 14.3068C72.1887 14.9811 72.3668 15.767 72.3668 16.6648C72.3668 17.5587 72.1887 18.3447 71.8327 19.0227C71.4804 19.697 70.9747 20.2235 70.3156 20.6023C69.6603 20.9773 68.8743 21.1648 67.9577 21.1648ZM67.9747 19.0682C68.308 19.0682 68.5902 18.9659 68.8213 18.7614C69.0524 18.5568 69.2285 18.2727 69.3497 17.9091C69.4747 17.5455 69.5372 17.125 69.5372 16.6477C69.5372 16.1629 69.4747 15.7386 69.3497 15.375C69.2285 15.0114 69.0524 14.7273 68.8213 14.5227C68.5902 14.3182 68.308 14.2159 67.9747 14.2159C67.63 14.2159 67.3384 14.3182 67.0997 14.5227C66.8649 14.7273 66.6849 15.0114 66.5599 15.375C66.4387 15.7386 66.3781 16.1629 66.3781 16.6477C66.3781 17.125 66.4387 17.5455 66.5599 17.9091C66.6849 18.2727 66.8649 18.5568 67.0997 18.7614C67.3384 18.9659 67.63 19.0682 67.9747 19.0682ZM75.7685 16.0227V21H72.9901V12.2727H75.6321V13.875H75.7287C75.9219 13.3409 76.2514 12.9223 76.7173 12.6193C77.1832 12.3125 77.7382 12.1591 78.3821 12.1591C78.9957 12.1591 79.5279 12.2973 79.9787 12.5739C80.4332 12.8466 80.7855 13.2292 81.0355 13.7216C81.2893 14.2102 81.4143 14.7822 81.4105 15.4375V21H78.6321V15.983C78.6359 15.4981 78.5128 15.1193 78.2628 14.8466C78.0166 14.5739 77.6738 14.4375 77.2344 14.4375C76.9427 14.4375 76.6851 14.5019 76.4616 14.6307C76.242 14.7557 76.0715 14.9356 75.9503 15.1705C75.8329 15.4053 75.7723 15.6894 75.7685 16.0227Z" fill="#393939"/>
</svg>
