<svg width="30" height="30" viewBox="0 0 30 30" fill="none" xmlns="http://www.w3.org/2000/svg">
<path d="M15 27.5V16.25" stroke="white" stroke-width="2" stroke-linecap="round" stroke-linejoin="round"/>
<path d="M18.9625 2.76251C19.2738 2.58844 19.6246 2.49704 19.9812 2.49704C20.3379 2.49704 20.6887 2.58844 21 2.76251L26.25 5.71251C26.6218 5.92276 26.9311 6.22796 27.1464 6.59692C27.3616 6.96588 27.475 7.38536 27.475 7.81251C27.475 8.23965 27.3616 8.65914 27.1464 9.0281C26.9311 9.39705 26.6218 9.70225 26.25 9.91251L11.025 18.4875C10.7127 18.6656 10.3595 18.7593 9.99999 18.7593C9.64052 18.7593 9.28724 18.6656 8.97499 18.4875L3.74999 15.5375C3.37818 15.3273 3.06885 15.0221 2.85363 14.6531C2.6384 14.2841 2.52499 13.8647 2.52499 13.4375C2.52499 13.0104 2.6384 12.5909 2.85363 12.2219C3.06885 11.853 3.37818 11.5478 3.74999 11.3375L18.9625 2.76251Z" stroke="white" stroke-width="2" stroke-linecap="round" stroke-linejoin="round"/>
<path d="M25 16.25V21.0875C25.0005 21.5593 24.8713 22.0222 24.6267 22.4256C24.382 22.829 24.0311 23.1574 23.6125 23.375L16.1125 27.225C15.7689 27.4036 15.3873 27.4968 15 27.4968C14.6127 27.4968 14.2311 27.4036 13.8875 27.225L6.3875 23.375C5.96886 23.1574 5.61804 22.829 5.37335 22.4256C5.12866 22.0222 4.99951 21.5593 5 21.0875V16.25" stroke="white" stroke-width="2" stroke-linecap="round" stroke-linejoin="round"/>
<path d="M26.25 15.5375C26.6218 15.3272 26.9311 15.022 27.1464 14.6531C27.3616 14.2841 27.475 13.8646 27.475 13.4375C27.475 13.0104 27.3616 12.5909 27.1464 12.2219C26.9311 11.8529 26.6218 11.5477 26.25 11.3375L11.0375 2.75C10.7273 2.57238 10.3761 2.47894 10.0187 2.47894C9.66134 2.47894 9.31014 2.57238 8.99999 2.75L3.74999 5.7125C3.37818 5.92275 3.06885 6.22795 2.85363 6.59691C2.6384 6.96587 2.52499 7.38535 2.52499 7.8125C2.52499 8.23964 2.6384 8.65913 2.85363 9.02809C3.06885 9.39704 3.37818 9.70224 3.74999 9.9125L18.975 18.4875C19.285 18.6656 19.6362 18.7593 19.9937 18.7593C20.3512 18.7593 20.7025 18.6656 21.0125 18.4875L26.25 15.5375Z" stroke="white" stroke-width="2" stroke-linecap="round" stroke-linejoin="round"/>
<path d="M13.3658 6.27273L14.9595 9.02983H15.0277L16.6385 6.27273H18.9993L16.3658 10.6364L19.0845 15H16.6641L15.0277 12.2131H14.9595L13.3232 15H10.9197L13.6257 10.6364L10.9879 6.27273H13.3658Z" fill="white"/>
</svg>
